# xmcd
#
# Track frame offsets:
#	150
#	31012
#	42517
#	57560
#	72660
#	96435
#	112252
#	131462
#	153142
#
# Disc length: 2445 seconds
#
# Revision: 0
# Processed by: cddbd v1.5.2PL0 Copyright (c) Steve Scherf et al.
# Submitted via: audiograbber 1.83.01
#
DISCID=80098b09
DTITLE=Wilco - Being There [CD 2)
DYEAR=1996
DGENRE=Alternative Rock
TTITLE0=Sunken Treasure
TTITLE1=Someday Soon
TTITLE2=Outta Mind (Outta Sight)
TTITLE3=Someone Else's Song
TTITLE4=Kingpin
TTITLE5=(Was I) In Your Dreams
TTITLE6=Why Would You Wanna Live
TTITLE7=The Lonely 1
TTITLE8=Dreamer In My Dreams
EXTD=
EXTT0=
EXTT1=
EXTT2=
EXTT3=
EXTT4=
EXTT5=
EXTT6=
EXTT7=
EXTT8=
PLAYORDER=
